<svg width="13" height="12" viewBox="0 0 13 12" fill="none" xmlns="http://www.w3.org/2000/svg">
<path fill-rule="evenodd" clip-rule="evenodd" d="M4.10001 1.19922C3.76864 1.19922 3.50001 1.46785 3.50001 1.79922V2.39922H2.90001C2.23727 2.39922 1.70001 2.93648 1.70001 3.59922V9.59922C1.70001 10.262 2.23727 10.7992 2.90001 10.7992H10.1C10.7628 10.7992 11.3 10.262 11.3 9.59922V3.59922C11.3 2.93648 10.7628 2.39922 10.1 2.39922H9.50001V1.79922C9.50001 1.46785 9.23138 1.19922 8.90001 1.19922C8.56864 1.19922 8.30001 1.46785 8.30001 1.79922V2.39922H4.70001V1.79922C4.70001 1.46785 4.43138 1.19922 4.10001 1.19922ZM4.10001 4.19922C3.76864 4.19922 3.50001 4.46785 3.50001 4.79922C3.50001 5.13059 3.76864 5.39922 4.10001 5.39922H8.90001C9.23138 5.39922 9.50001 5.13059 9.50001 4.79922C9.50001 4.46785 9.23138 4.19922 8.90001 4.19922H4.10001Z" fill="#424242"/>
</svg>
