<svg width="18" height="18" viewBox="0 0 18 18" fill="none" xmlns="http://www.w3.org/2000/svg">
<path d="M9 8.99323C8.6548 8.99323 8.37497 9.27304 8.37497 9.6182V9.62289C8.37497 9.96805 8.6548 10.2479 9 10.2479H9.00468C9.34988 10.2479 9.62971 9.96805 9.62971 9.62289V9.6182C9.62971 9.27304 9.34988 8.99323 9.00468 8.99323H9Z" fill="#616161"/>
<path d="M8.99939 12.7433C8.65419 12.7433 8.37436 13.0231 8.37436 13.3682V13.3729C8.37436 13.7181 8.65419 13.9979 8.99939 13.9979H9.00407C9.34927 13.9979 9.6291 13.7181 9.6291 13.3729V13.3682C9.6291 13.0231 9.34927 12.7433 9.00407 12.7433H8.99939Z" fill="#616161"/>
<path d="M6.49872 13.3688C6.49872 13.0237 6.77856 12.7439 7.12375 12.7439H7.12844C7.47363 12.7439 7.75346 13.0237 7.75346 13.3688V13.3735C7.75346 13.7187 7.47363 13.9985 7.12844 13.9985H7.12375C6.77856 13.9985 6.49872 13.7187 6.49872 13.3735V13.3688Z" fill="#616161"/>
<path d="M5.24872 12.7433C4.90353 12.7433 4.62369 13.0231 4.62369 13.3682V13.3729C4.62369 13.7181 4.90353 13.9979 5.24872 13.9979H5.25341C5.5986 13.9979 5.87844 13.7181 5.87844 13.3729V13.3682C5.87844 13.0231 5.5986 12.7433 5.25341 12.7433H5.24872Z" fill="#616161"/>
<path d="M10.2488 11.4961C10.2488 11.151 10.5286 10.8711 10.8738 10.8711H10.8785C11.2237 10.8711 11.5035 11.151 11.5035 11.4961V11.5008C11.5035 11.846 11.2237 12.1258 10.8785 12.1258H10.8738C10.5286 12.1258 10.2488 11.846 10.2488 11.5008V11.4961Z" fill="#616161"/>
<path d="M10.8744 12.7439C10.5292 12.7439 10.2494 13.0237 10.2494 13.3688V13.3735C10.2494 13.7187 10.5292 13.9985 10.8744 13.9985H10.8791C11.2243 13.9985 11.5041 13.7187 11.5041 13.3735V13.3688C11.5041 13.0237 11.2243 12.7439 10.8791 12.7439H10.8744Z" fill="#616161"/>
<path d="M12.1244 11.4949C12.1244 11.1497 12.4042 10.8699 12.7494 10.8699H12.7541C13.0993 10.8699 13.3792 11.1497 13.3792 11.4949V11.4996C13.3792 11.8447 13.0993 12.1246 12.7541 12.1246H12.7494C12.4042 12.1246 12.1244 11.8447 12.1244 11.4996V11.4949Z" fill="#616161"/>
<path d="M10.2481 9.61822C10.2481 9.27306 10.5279 8.99325 10.8731 8.99325H12.7481C13.0933 8.99325 13.3732 9.27306 13.3732 9.61822C13.3732 9.96339 13.0933 10.2432 12.7481 10.2432H10.8731C10.5279 10.2432 10.2481 9.96339 10.2481 9.61822Z" fill="#616161"/>
<path d="M4.6231 11.4932C4.6231 11.1481 4.90294 10.8682 5.24813 10.8682H8.99813C9.34332 10.8682 9.62316 11.1481 9.62316 11.4932C9.62316 11.8384 9.34332 12.1182 8.99813 12.1182H5.24813C4.90294 12.1182 4.6231 11.8384 4.6231 11.4932Z" fill="#616161"/>
<path fill-rule="evenodd" clip-rule="evenodd" d="M13.9996 1.49411C13.9996 1.14895 13.7198 0.869141 13.3746 0.869141C13.0294 0.869141 12.7496 1.14895 12.7496 1.49411V2.74309H5.24937V1.49523C5.24937 1.15007 4.96953 0.870256 4.62434 0.870256C4.27915 0.870256 3.99931 1.15007 3.99931 1.49523V2.74309H3.37316C1.99238 2.74309 0.873047 3.86233 0.873047 5.24298V14.6181C0.873047 15.9988 1.99239 17.118 3.37316 17.118H14.623C16.0038 17.118 17.1231 15.9988 17.1231 14.6181V5.24298C17.1231 3.86233 16.0038 2.74309 14.623 2.74309H13.9996V1.49411ZM2.1231 14.6181V8.36839C2.1231 7.67806 2.68277 7.11844 3.37316 7.11844H14.623C15.3134 7.11844 15.873 7.67806 15.873 8.36839V14.6181C15.873 15.3085 15.3134 15.8681 14.623 15.8681H3.37316C2.68277 15.8681 2.1231 15.3085 2.1231 14.6181Z" fill="#616161"/>
</svg>
