<svg width="16" height="16" viewBox="0 0 16 16" fill="none" xmlns="http://www.w3.org/2000/svg">
<path fill-rule="evenodd" clip-rule="evenodd" d="M5 2.5C4.44772 2.5 4 2.94772 4 3.5L4 12.5C4 13.0523 4.44772 13.5 5 13.5H9C9.55228 13.5 10 13.0523 10 12.5V10C10 9.72386 10.2239 9.5 10.5 9.5C10.7761 9.5 11 9.72386 11 10V12.5C11 13.6046 10.1046 14.5 9 14.5H5C3.89543 14.5 3 13.6046 3 12.5L3 3.5C3 2.39543 3.89543 1.5 5 1.5L9 1.5C10.1046 1.5 11 2.39543 11 3.5V6C11 6.27614 10.7761 6.5 10.5 6.5C10.2239 6.5 10 6.27614 10 6V3.5C10 2.94772 9.55228 2.5 9 2.5L5 2.5ZM12.1464 5.64645C12.3417 5.45119 12.6583 5.45119 12.8536 5.64645L14.8536 7.64645C15.0488 7.84171 15.0488 8.15829 14.8536 8.35355L12.8536 10.3536C12.6583 10.5488 12.3417 10.5488 12.1464 10.3536C11.9512 10.1583 11.9512 9.84171 12.1464 9.64645L13.2929 8.5L6 8.5C5.72386 8.5 5.5 8.27614 5.5 8C5.5 7.72386 5.72386 7.5 6 7.5L13.2929 7.5L12.1464 6.35355C11.9512 6.15829 11.9512 5.84171 12.1464 5.64645Z" fill="#FE0D0D"/>
</svg>
