<svg width="17" height="16" viewBox="0 0 17 16" fill="none" xmlns="http://www.w3.org/2000/svg">
<path fill-rule="evenodd" clip-rule="evenodd" d="M5.94098 1.72034C6.29289 1.54439 6.70711 1.54439 7.05902 1.72034L10.3882 3.38493C10.4586 3.42013 10.5414 3.42013 10.6118 3.38493L13.191 2.09534C14.0221 1.67978 15 2.28415 15 3.21338V11.5363C15 12.0098 14.7325 12.4426 14.309 12.6544L11.059 14.2794C10.7071 14.4553 10.2929 14.4553 9.94098 14.2794L6.6118 12.6148C6.54142 12.5796 6.45858 12.5796 6.3882 12.6148L3.80902 13.9044C2.97789 14.3199 2 13.7156 2 12.7863V4.46338C2 3.98991 2.2675 3.55709 2.69098 3.34535L5.94098 1.72034ZM6.5 3.99985C6.77614 3.99985 7 4.22371 7 4.49985V9.99985C7 10.276 6.77614 10.4998 6.5 10.4998C6.22386 10.4998 6 10.276 6 9.99985V4.49985C6 4.22371 6.22386 3.99985 6.5 3.99985ZM11 5.99985C11 5.7237 10.7761 5.49985 10.5 5.49985C10.2239 5.49985 10 5.7237 10 5.99985V11.4998C10 11.776 10.2239 11.9998 10.5 11.9998C10.7761 11.9998 11 11.776 11 11.4998V5.99985Z" fill="#0DAB76"/>
</svg>
