<svg width="17" height="16" viewBox="0 0 17 16" fill="none" xmlns="http://www.w3.org/2000/svg">
<path fill-rule="evenodd" clip-rule="evenodd" d="M8.5 15C12.366 15 15.5 11.866 15.5 8C15.5 4.13401 12.366 1 8.5 1C4.63401 1 1.5 4.13401 1.5 8C1.5 11.866 4.63401 15 8.5 15ZM9.25 4.75V7.25L11.75 7.25C12.1642 7.25 12.5 7.58579 12.5 8C12.5 8.41421 12.1642 8.75 11.75 8.75H9.25V11.25C9.25 11.6642 8.91421 12 8.5 12C8.08579 12 7.75 11.6642 7.75 11.25V8.75H5.25C4.83579 8.75 4.5 8.41421 4.5 8C4.5 7.58579 4.83579 7.25 5.25 7.25L7.75 7.25V4.75C7.75 4.33579 8.08579 4 8.5 4C8.91421 4 9.25 4.33579 9.25 4.75Z" fill="#0DAB76"/>
</svg>
